HIERARCHY
ROOT hip
{
	OFFSET 0.000000 0.000000 0.000000 
	CHANNELS 6 Xposition Yposition Zposition Xrotation Zrotation Yrotation
	JOINT abdomen
	{
		OFFSET 0.000000 3.402643 0.000000 
		CHANNELS 3 Xrotation Zrotation Yrotation
		JOINT chest
		{
			OFFSET 0.000000 8.438565 -0.680529 
			CHANNELS 3 Xrotation Zrotation Yrotation
			JOINT neck
			{
				OFFSET 0.000000 10.207942 -0.272212 
				CHANNELS 3 Xrotation Zrotation Yrotation
				JOINT head
				{
					OFFSET 0.000000 3.130431 0.000000 
					CHANNELS 3 Xrotation Zrotation Yrotation
					End Site
					{
						OFFSET 0.000000 3.130435 0.000000 
					}
				}
			}
			JOINT lCollar
			{
				OFFSET 3.470700 6.669187 -0.816635 
				CHANNELS 3 Yrotation Zrotation Xrotation
				JOINT lShldr
				{
					OFFSET 3.198488 0.000000 0.000000 
					CHANNELS 3 Zrotation Yrotation Xrotation
					JOINT lForeArm
					{
						OFFSET 10.139888 0.000000 0.000000 
						CHANNELS 3 Yrotation Zrotation Xrotation
						JOINT lHand
						{
							OFFSET 8.370511 0.000000 0.000000 
							CHANNELS 3 Zrotation Yrotation Xrotation
							End Site
							{
								OFFSET 4.083176 0.000000 0.000000 
							}
						}
					}
				}
			}
			JOINT rCollar
			{
				OFFSET -3.470700 6.669187 -0.816635 
				CHANNELS 3 Yrotation Zrotation Xrotation
				JOINT rShldr
				{
					OFFSET -3.198488 0.000000 0.000000 
					CHANNELS 3 Zrotation Yrotation Xrotation
					JOINT rForeArm
					{
						OFFSET -10.139888 0.000000 0.000000 
						CHANNELS 3 Yrotation Zrotation Xrotation
						JOINT rHand
						{
							OFFSET -8.370511 0.000000 0.000000 
							CHANNELS 3 Zrotation Yrotation Xrotation
							End Site
							{
								OFFSET -4.083176 0.000000 0.000000 
							}
						}
					}
				}
			}
		}
	}
	JOINT lThigh
	{
		OFFSET 5.308129 -1.633274 1.361059 
		CHANNELS 3 Xrotation Zrotation Yrotation
		JOINT lShin
		{
			OFFSET -2.041588 -20.007561 0.000000 
			CHANNELS 3 Xrotation Zrotation Yrotation
			JOINT lFoot
			{
				OFFSET 0.000000 -19.190928 -1.224953 
				CHANNELS 3 Xrotation Yrotation Zrotation
				End Site
				{
					OFFSET 0.000000 -2.449906 4.627600 
				}
			}
		}
	}
	JOINT rThigh
	{
		OFFSET -5.308129 -1.633274 1.361059 
		CHANNELS 3 Xrotation Zrotation Yrotation
		JOINT rShin
		{
			OFFSET 2.041588 -20.007561 0.000000 
			CHANNELS 3 Xrotation Zrotation Yrotation
			JOINT rFoot
			{
				OFFSET 0.000000 -19.190928 -1.224953 
				CHANNELS 3 Xrotation Yrotation Zrotation
				End Site
				{
					OFFSET 0.000000 -2.449906 4.627600 
				}
			}
		}
	}
}
MOTION
Frames: 6
Frame Time: 0.033333
9.912746 41.578777 33.147770 -8.095704 2.978516 -145.371094 20.058594 3.554688 -3.622442 -9.814453 -2.050781 -4.306641 -12.773438 -3.750000 -12.539701 15.429688 12.001954 -11.833906 -0.732422 6.582032 0.253906 -95.478516 -39.843746 74.765617 -43.896484 -2.949219 -27.871090 22.607422 1.552734 0.410423 7.724608 4.833984 -0.292969 72.294922 25.458984 0.521776 70.966797 3.203125 -39.814732 -10.683594 -8.945313 1.171875 -4.899781 14.807362 0.679568 34.179539 -1.193018 -2.376186 -33.868210 9.650215 -0.843516 -47.925747 -18.796949 -8.293097 59.814964 -0.536854 3.213244 -20.040565 0.445022 7.091413 
10.030972 41.545986 32.996986 -8.271484 3.339844 -144.667969 20.234373 3.505859 -3.457031 -9.990234 -1.875000 -4.131180 -13.447266 -3.945313 -13.067080 15.781251 12.167970 -12.517473 -0.556641 6.943371 0.233194 -96.171875 -39.873047 76.083984 -43.417969 -2.880859 -25.693359 23.095703 0.625000 0.048828 7.373047 4.658203 -0.244934 72.333984 24.648438 -0.357253 71.972656 3.398438 -41.230473 -7.783203 -8.710938 0.828599 -4.909583 15.208167 0.163710 33.476063 -1.085570 -2.668811 -33.774761 9.179949 -0.745624 -48.091412 -18.786694 -8.622766 60.175415 -0.566394 3.222349 -20.614780 -0.083185 7.228267 
10.166742 41.554939 32.846699 -8.798828 3.339844 -143.437500 20.410156 3.281250 -3.339844 -10.341797 -2.226563 -3.964844 -14.091797 -4.316407 -14.111328 15.966797 12.871094 -13.388672 -0.380859 7.119141 0.214844 -97.070313 -39.794918 77.148438 -43.056641 -2.763672 -22.412107 23.779299 -0.468750 -0.322346 7.548829 4.306641 -0.215577 72.841797 23.007813 -2.255860 73.730469 3.349610 -42.520103 -5.585938 -8.076173 0.408784 -5.252268 15.181573 -0.746806 32.258701 -1.085383 -2.257053 -33.189163 8.499225 -1.571475 -48.481205 -19.323360 -8.561873 60.526371 -0.703127 3.141822 -20.880503 -0.782966 6.598922 
10.342083 41.630207 32.763809 -10.205079 3.164063 -141.318619 20.576170 3.115234 -3.388672 -10.703125 -2.920012 -3.974967 -15.419922 -4.697266 -15.517578 16.328125 13.750001 -14.597287 -0.048828 7.470703 0.341797 -98.007813 -40.029297 78.431221 -42.539059 -2.558594 -18.749565 24.843752 -0.537109 -0.224699 8.076172 3.955079 -0.205752 73.632813 21.035158 -5.670321 76.640625 3.349609 -44.863277 -5.019531 -7.910156 0.272094 -6.512249 15.084943 -1.012373 30.657516 -1.085374 -2.700776 -32.160973 6.943309 -2.580805 -49.094173 -20.503904 -7.801334 60.890911 -0.713923 3.315122 -20.781715 -1.904479 6.324474 
10.575752 41.755814 32.732586 -11.787110 3.164063 -138.691406 21.103516 2.832031 -3.662109 -11.406250 -4.150391 -4.345703 -16.562500 -4.726563 -16.923828 16.328125 14.628908 -16.179174 -0.048828 7.646485 0.341797 -98.759766 -40.517578 79.833984 -41.152344 -2.480469 -15.185548 26.064453 -0.634766 -0.458984 8.955078 3.437500 -0.175781 74.716797 18.876955 -9.596448 79.316406 3.417969 -46.904297 -3.945313 -7.929688 0.156250 -8.062263 15.217470 0.144375 29.072823 -1.251139 -2.310944 -30.469196 2.638105 -5.619171 -49.997265 -21.922277 -6.963866 61.062084 -0.731292 3.167614 -20.781740 -3.516950 5.552854 
10.859394 41.866295 32.755573 -13.359374 3.164063 -135.692810 21.806643 2.763672 -4.052264 -12.119141 -5.195313 -4.716797 -17.705080 -4.931641 -18.515625 15.976563 15.156251 -17.783205 0.126953 7.470700 0.320996 -99.384766 -41.542969 82.034538 -39.462894 -2.333985 -12.490233 27.470701 -1.523437 -0.869141 9.658202 3.085937 -0.166016 75.605469 17.607422 -12.246093 80.625000 3.564453 -48.838501 -1.962891 -7.236329 -0.078125 -9.617650 15.007027 1.254253 27.865181 -1.255558 -1.880186 -28.426725 -2.402471 -8.306819 -51.035336 -23.672209 -5.362317 61.447235 -0.555772 2.935504 -19.647354 -4.490426 5.407391 
